#!OML:ASF I:\Actors\actors\Patient Classification 2\Patient 1\Session 1\actor1.ASF
:FULLY-SPECIFIED
:DEGREES
711
root -0.704345 18.7047 5.85466 3.24425 -3.33524 -1.86597
lowerback 0.881435 1.24855 -0.138298
upperback -1.46516 1.67534 0.676724
thorax -2.01917 0.844579 0.726608
lowerneck -9.78291 -2.58345 -0.112479
upperneck 18.2567 -4.20763 3.45419
head 7.2874 -1.7187 0.75516
rclavicle 1.5659e-014 -8.00108e-015
rhumerus -28.3351 36.2757 -83.3913
rradius 109.47
rwrist -38.9112
rhand -4.53346 -44.3021
rfingers 7.12502
rthumb 21.2416 -73.1581
lclavicle 1.5659e-014 -8.00108e-015
lhumerus -23.4938 -38.9506 88.5672
lradius 108.229
lwrist 65.2575
lhand -24.8706 -17.5537
lfingers 7.12502
lthumb 1.63659 12.4198
rfemur 0 0 0
rtibia 0
rfoot 0 0
rtoes 0
lfemur -4.53175 -8.07101 -12.8427
ltibia 21.3494
lfoot -26.2064 18.0214
ltoes -53.7941
712
root -0.704295 18.7041 5.85561 3.20594 -3.34786 -1.99554
lowerback 0.892208 1.26439 -0.00630767
upperback -1.45354 1.69937 0.703607
thorax -2.0106 0.854745 0.679558
lowerneck -9.85328 -2.56351 -0.158464
upperneck 18.3467 -4.18708 3.50747
head 7.33104 -1.70472 0.780787
rclavicle -1.00262e-014 -1.28713e-014
rhumerus -28.3923 36.2967 -83.4368
rradius 109.399
rwrist -39.0982
rhand -4.95148 -44.0103
rfingers 7.12502
rthumb 20.84 -72.911
lclavicle -1.00262e-014 -1.28713e-014
lhumerus -23.5062 -38.9486 88.6322
lradius 108.088
lwrist 65.2811
lhand -24.9382 -17.5293
lfingers 7.12502
lthumb 1.57121 12.4447
rfemur 0 0 0
rtibia 0
rfoot 0 0
rtoes 0
lfemur -4.50016 -8.03505 -12.6952
ltibia 21.3918
lfoot -26.2086 17.9718
ltoes -53.6731
713
root -0.703631 18.7036 5.85647 3.15589 -3.36699 -2.16482
lowerback 0.926428 1.28677 0.178738
upperback -1.45421 1.73341 0.73113
thorax -2.02629 0.869123 0.602477
lowerneck -9.83875 -2.55084 -0.170664
upperneck 18.4034 -4.17554 3.53726
head 7.34767 -1.69654 0.793609
rclavicle 1.04797e-014 8.74653e-015
rhumerus -28.5125 36.2913 -83.5722
rradius 109.304
rwrist -39.2934
rhand -5.31346 -43.7137
rfingers 7.12502
rthumb 20.4922 -72.6523
lclavicle 1.04797e-014 8.74653e-015
lhumerus -23.5637 -38.9797 88.6969
lradius 107.968
lwrist 65.3018
lhand -24.939 -17.6186
lfingers 7.12502
lthumb 1.5705 12.3554
rfemur 0 0 0
rtibia 0
rfoot 0 0
rtoes 0
lfemur -4.45111 -8.08338 -12.5173
ltibia 21.4466
lfoot -26.2939 17.9868
ltoes -53.6479
714
root -0.703176 18.7031 5.85779 3.1047 -3.38614 -2.22537
lowerback 0.943006 1.29606 0.230445
upperback -1.45816 1.74699 0.734782
thorax -2.03836 0.875138 0.576461
lowerneck -9.76034 -2.54599 -0.174559
upperneck 18.4068 -4.17314 3.56621
head 7.33546 -1.69404 0.804902
rclavicle -1.8268e-014 1.11319e-014
rhumerus -28.6386 36.2721 -83.7292
rradius 109.191
rwrist -39.2721
rhand -5.39706 -43.6133
rfingers 7.12502
rthumb 20.4119 -72.5605
lclavicle -1.8268e-014 1.11319e-014
lhumerus -23.6504 -38.9895 88.7614
lradius 107.862
lwrist 65.2885
lhand -24.8308 -17.6578
lfingers 7.12502
lthumb 1.67498 12.3154
rfemur 0 0 0
rtibia 0
rfoot 0 0
rtoes 0
lfemur -4.42008 -8.1219 -12.4675
ltibia 21.5253
lfoot -26.3733 18.0341
ltoes -53.745
715
root -0.702488 18.7019 5.85863 3.0513 -3.39494 -2.2823
lowerback 0.969314 1.29741 0.280349
upperback -1.46147 1.75012 0.742201
thorax -2.05531 0.875974 0.555362
lowerneck -9.67441 -2.55524 -0.193199
upperneck 18.3763 -4.1824 3.57637
head 7.31096 -1.70055 0.811627
rclavicle -1.30126e-014 1.30204e-014
rhumerus -28.7115 36.2689 -83.8155
rradius 109.07
rwrist -39.2234
rhand -5.43647 -43.7383
rfingers 7.12502
rthumb 20.374 -72.6895
lclavicle -1.30126e-014 1.30204e-014
lhumerus -23.7287 -38.9833 88.8289
lradius 107.766
lwrist 65.2596
lhand -24.8574 -17.6084
lfingers 7.12502
lthumb 1.64934 12.365
rfemur 0 0 0
rtibia 0
rfoot 0 0
rtoes 0
lfemur -4.38543 -8.10553 -12.4158
ltibia 21.5744
lfoot -26.3361 18.0858
ltoes -53.8285
716
root -0.702421 18.7012 5.85918 3.02094 -3.39974 -2.33656
lowerback 0.986849 1.2977 0.327868
upperback -1.47564 1.75191 0.752502
thorax -2.07864 0.876199 0.538648
lowerneck -9.56967 -2.55707 -0.192362
upperneck 18.3118 -4.17819 3.56123
head 7.27076 -1.70235 0.808506
rclavicle -8.74109e-015 -8.34896e-015
rhumerus -28.7826 36.2878 -83.8754
rradius 108.956
rwrist -39.2215
rhand -5.48506 -43.6739
rfingers 7.12502
rthumb 20.3273 -72.6301
lclavicle -8.74109e-015 -8.34896e-015
lhumerus -23.8097 -38.9757 88.9202
lradius 107.669
lwrist 65.2011
lhand -25.0466 -17.6102
lfingers 7.12502
lthumb 1.46658 12.3645
rfemur 0 0 0
rtibia 0
rfoot 0 0
rtoes 0
lfemur -4.35188 -8.0646 -12.3557
ltibia 21.5709
lfoot -26.2701 18.1096
ltoes -53.8882
717
root -0.70375 18.7018 5.85996 3.0329 -3.41121 -2.22211
lowerback 0.946095 1.30766 0.186999
upperback -1.49338 1.76162 0.716939
thorax -2.07714 0.882997 0.581499
lowerneck -9.54191 -2.55765 -0.195483
upperneck 18.3061 -4.18323 3.58878
head 7.26477 -1.70299 0.81787
rclavicle -2.85594e-014 1.54058e-014
rhumerus -28.8445 36.2534 -83.9365
rradius 108.872
rwrist -39.2203
rhand -5.38583 -43.5101
rfingers 7.12502
rthumb 20.4227 -72.4561
lclavicle -2.85594e-014 1.54058e-014
lhumerus -23.8891 -38.9884 89.011
lradius 107.578
lwrist 65.1146
lhand -25.0935 -17.6525
lfingers 7.12502
lthumb 1.42128 12.3226
rfemur 0 0 0
rtibia 0
rfoot 0 0
rtoes 0
lfemur -4.3659 -8.04118 -12.4819
ltibia 21.5662
lfoot -26.2506 18.1293
ltoes -53.9542
718
root -0.704839 18.7024 5.86084 3.0518 -3.42732 -2.09421
lowerback 0.88058 1.32377 0.0299702
upperback -1.49895 1.77905 0.676767
thorax -2.04972 0.893855 0.629271
lowerneck -9.58625 -2.55263 -0.208728
upperneck 18.3635 -4.18948 3.65297
head 7.29332 -1.69956 0.83959
rclavicle -1.33481e-015 9.44227e-015
rhumerus -28.8702 36.1823 -83.9761
rradius 108.802
rwrist -39.2365
rhand -5.23129 -43.5479
rfingers 7.12502
rthumb 20.5712 -72.4779
lclavicle -1.33481e-015 9.44227e-015
lhumerus -23.9489 -39.0117 89.0709
lradius 107.498
lwrist 65.09
lhand -24.991 -17.6916
lfingers 7.12502
lthumb 1.52025 12.2827
rfemur 0 0 0
rtibia 0
rfoot 0 0
rtoes 0
lfemur -4.38869 -8.09521 -12.6325
ltibia 21.5682
lfoot -26.2579 18.1982
ltoes -53.9843
719
root -0.703494 18.7011 5.86167 3.01116 -3.45497 -2.22073
lowerback 0.894269 1.33585 0.171034
upperback -1.48908 1.79812 0.69316
thorax -2.04368 0.901291 0.566453
lowerneck -9.62891 -2.52779 -0.219977
upperneck 18.4408 -4.17596 3.74885
head 7.32834 -1.68335 0.873112
rclavicle 1.89273e-015 -2.45499e-014
rhumerus -28.9335 36.1363 -84.0599
rradius 108.749
rwrist -39.2233
rhand -5.13679 -43.6794
rfingers 7.12502
rthumb 20.662 -72.5996
lclavicle 1.89273e-015 -2.45499e-014
lhumerus -23.965 -39.039 89.0647
lradius 107.409
lwrist 65.1445
lhand -24.8769 -17.7453
lfingers 7.12502
lthumb 1.63043 12.2283
rfemur 0 0 0
rtibia 0
rfoot 0 0
rtoes 0
lfemur -4.32537 -8.10704 -12.5043
ltibia 21.5553
lfoot -26.2642 18.2285
ltoes -54.0347
